<?xml version="1.0" encoding="UTF-8" standalone="no"?>
<!-- Created with Inkscape (http://www.inkscape.org/) -->

<svg
   width="135.46667mm"
   height="135.46667mm"
   viewBox="0 0 135.46667 135.46667"
   version="1.1"
   id="svg5"
   xml:space="preserve"
   inkscape:version="1.2.2 (b0a8486541, 2022-12-01)"
   sodipodi:docname="logo.svg"
   xmlns:inkscape="http://www.inkscape.org/namespaces/inkscape"
   xmlns:sodipodi="http://sodipodi.sourceforge.net/DTD/sodipodi-0.dtd"
   xmlns:xlink="http://www.w3.org/1999/xlink"
   xmlns="http://www.w3.org/2000/svg"
   xmlns:svg="http://www.w3.org/2000/svg"><sodipodi:namedview
     id="namedview7"
     pagecolor="#ffffff"
     bordercolor="#000000"
     borderopacity="0.25"
     inkscape:showpageshadow="2"
     inkscape:pageopacity="0.0"
     inkscape:pagecheckerboard="0"
     inkscape:deskcolor="#d1d1d1"
     inkscape:document-units="mm"
     showgrid="false"
     inkscape:zoom="0.97638868"
     inkscape:cx="7.1692761"
     inkscape:cy="319.03279"
     inkscape:window-width="1920"
     inkscape:window-height="1011"
     inkscape:window-x="0"
     inkscape:window-y="0"
     inkscape:window-maximized="1"
     inkscape:current-layer="layer1" /><defs
     id="defs2"><linearGradient
       id="linearGradient2795"><stop
         style="stop-color:#b8b8b8;stop-opacity:0.49803922;"
         offset="0"
         id="stop2797" /><stop
         style="stop-color:#7f7f7f;stop-opacity:0;"
         offset="1"
         id="stop2799" /></linearGradient><linearGradient
       id="linearGradient2787"><stop
         style="stop-color:#7f7f7f;stop-opacity:0.5;"
         offset="0"
         id="stop2789" /><stop
         style="stop-color:#7f7f7f;stop-opacity:0;"
         offset="1"
         id="stop2791" /></linearGradient><linearGradient
       id="linearGradient3676"><stop
         style="stop-color:#b2b2b2;stop-opacity:0.5;"
         offset="0"
         id="stop3678" /><stop
         style="stop-color:#b3b3b3;stop-opacity:0;"
         offset="1"
         id="stop3680" /></linearGradient><linearGradient
       id="linearGradient3236"><stop
         style="stop-color:#f4f4f4;stop-opacity:1"
         offset="0"
         id="stop3244" /><stop
         style="stop-color:white;stop-opacity:1"
         offset="1"
         id="stop3240" /></linearGradient><linearGradient
       id="linearGradient4671"><stop
         style="stop-color:#ffd43b;stop-opacity:1;"
         offset="0"
         id="stop4673" /><stop
         style="stop-color:#ffe873;stop-opacity:1"
         offset="1"
         id="stop4675" /></linearGradient><linearGradient
       id="linearGradient4689"><stop
         style="stop-color:#5a9fd4;stop-opacity:1;"
         offset="0"
         id="stop4691" /><stop
         style="stop-color:#306998;stop-opacity:1;"
         offset="1"
         id="stop4693" /></linearGradient><linearGradient
       x1="224.23996"
       y1="144.75717"
       x2="-65.308502"
       y2="144.75717"
       id="linearGradient2987"
       xlink:href="#linearGradient4671"
       gradientUnits="userSpaceOnUse"
       gradientTransform="translate(100.2702,99.61116)" /><linearGradient
       x1="172.94208"
       y1="77.475983"
       x2="26.670298"
       y2="76.313133"
       id="linearGradient2990"
       xlink:href="#linearGradient4689"
       gradientUnits="userSpaceOnUse"
       gradientTransform="translate(100.2702,99.61116)" /><linearGradient
       inkscape:collect="always"
       xlink:href="#linearGradient4671"
       id="linearGradient2255"
       gradientUnits="userSpaceOnUse"
       gradientTransform="matrix(0.562541,0,0,0.567972,-11.5974,-7.60954)"
       x1="224.23996"
       y1="144.75717"
       x2="-65.308502"
       y2="144.75717" /><linearGradient
       inkscape:collect="always"
       xlink:href="#linearGradient4689"
       id="linearGradient2258"
       gradientUnits="userSpaceOnUse"
       gradientTransform="matrix(0.562541,0,0,0.567972,-11.5974,-7.60954)"
       x1="172.94208"
       y1="76.176224"
       x2="26.670298"
       y2="76.313133" /><radialGradient
       inkscape:collect="always"
       xlink:href="#linearGradient2795"
       id="radialGradient2801"
       cx="61.518883"
       cy="132.28575"
       fx="61.518883"
       fy="132.28575"
       r="29.036913"
       gradientTransform="matrix(1,0,0,0.177966,0,108.7434)"
       gradientUnits="userSpaceOnUse" /></defs><g
     inkscape:label="Camada 1"
     inkscape:groupmode="layer"
     id="layer1"
     transform="translate(-71.282423,-114.44782)"><g
       id="g2860"
       style="fill:#00338d;fill-opacity:1"
       transform="matrix(2.0088433,0,0,1.9891042,-71.912789,-113.20082)"><path
         id="rect234"
         style="fill:#00338d;fill-opacity:1;stroke-width:1"
         d="m 71.28242,114.44782 v 29.97594 h 6.524666 V 121.6417 h 23.116424 v -7.19388 z m 37.79408,0 v 7.19388 h 23.11641 v -7.19388 z m 23.11641,7.19388 v 22.78206 h 6.52467 V 121.6417 Z m -60.91049,30.93454 v 22.78207 h 6.524666 v -22.78207 z m 6.524666,22.78207 v 7.19387 h 23.116424 v -7.19387 z m 54.385824,-22.78207 v 22.78207 H 109.0765 v 7.19387 h 29.64108 v -29.97594 z" /><g
         id="g2706"
         transform="matrix(0.375388,0,0,0.375388,84.135681,123.22361)"
         style="fill:#00338d;fill-opacity:1"><g
           id="g2853"
           transform="matrix(0.95807622,0,0,0.95807622,221.89925,74.222744)"
           style="fill:#00338d;fill-opacity:1"><path
             style="fill:#00338d;fill-opacity:1"
             d="m -174.25828,-63.383726 c -4.58366,0.0213 -8.96094,0.412218 -12.8125,1.09375 -11.34622,2.004504 -13.40625,6.200102 -13.40625,13.9375 v 10.21875 h 26.8125 v 3.40625 h -26.8125 -10.0625 c -7.79246,0 -14.61576,4.683717 -16.75,13.59375 -2.46182,10.212966 -2.57102,16.586023 0,27.25 1.90592,7.937852 6.45754,13.593748 14.25,13.59375 h 9.21875 v -12.25 c 0,-8.849902 7.65714,-16.656248 16.75,-16.65625 h 26.78125 c 7.45495,0 13.40625,-6.138164 13.40625,-13.625 v -25.53125 c 0,-7.266339 -6.12998,-12.724777 -13.40625,-13.9375 -4.60599,-0.766725 -9.3851,-1.115048 -13.96875,-1.09375 z m -14.5,8.21875 c 2.76954,0 5.03125,2.298646 5.03125,5.125 -10e-6,2.816336 -2.26171,5.09375 -5.03125,5.09375 -2.77948,-10e-7 -5.03125,-2.277415 -5.03125,-5.09375 -10e-6,-2.826353 2.25177,-5.125 5.03125,-5.125 z"
             id="path1948-6" /><path
             style="fill:#00338d;fill-opacity:1"
             d="m -143.53953,-34.727476 v 11.90625 c 0,9.230755 -7.8259,16.999999 -16.75,17 h -26.78125 c -7.33584,0 -13.40625,6.278483 -13.40625,13.625 v 25.531247 c 0,7.266344 6.31858,11.540324 13.40625,13.625004 8.48733,2.49561 16.62623,2.94663 26.78125,0 6.75015,-1.95439 13.40625,-5.88761 13.40625,-13.625004 V 23.116274 h -26.78125 v -3.40625 h 26.78125 13.40625 c 7.79246,0 10.69625,-5.435408 13.40624,-13.59375 2.79933,-8.398886 2.68022,-16.475776 0,-27.25 -1.92578,-7.757441 -5.60387,-13.59375 -13.40624,-13.59375 z m -15.0625,64.65625 c 2.77947,3e-6 5.03125,2.277417 5.03125,5.093747 -10e-6,2.826354 -2.25178,5.125004 -5.03125,5.125004 -2.76955,0 -5.03125,-2.29865 -5.03125,-5.125004 0,-2.81633 2.26169,-5.093747 5.03125,-5.093747 z"
             id="path1950-2" /></g></g></g></g></svg>
